<svg width="24" height="24" viewBox="0 0 24 24" fill="none" xmlns="http://www.w3.org/2000/svg">
<path fill-rule="evenodd" clip-rule="evenodd" d="M2.228 5.852C2 6.403 2 7.102 2 8.5V9.25C2 9.664 2.336 10 2.75 10H3C3.53043 10 4.03914 10.2107 4.41421 10.5858C4.78929 10.9609 5 11.4696 5 12C5 12.5304 4.78929 13.0391 4.41421 13.4142C4.03914 13.7893 3.53043 14 3 14H2.75C2.55109 14 2.36032 14.079 2.21967 14.2197C2.07902 14.3603 2 14.5511 2 14.75V15.5C2 16.898 2 17.597 2.228 18.148C2.37877 18.5121 2.59979 18.8429 2.87844 19.1216C3.15709 19.4002 3.48791 19.6212 3.852 19.772C4.403 20 5.102 20 6.5 20H17.5C18.898 20 19.597 20 20.148 19.772C20.5121 19.6212 20.8429 19.4002 21.1216 19.1216C21.4002 18.8429 21.6212 18.5121 21.772 18.148C22 17.597 22 16.898 22 15.5V14.75C22 14.5511 21.921 14.3603 21.7803 14.2197C21.6397 14.079 21.4489 14 21.25 14H21C20.4696 14 19.9609 13.7893 19.5858 13.4142C19.2107 13.0391 19 12.5304 19 12C19 11.4696 19.2107 10.9609 19.5858 10.5858C19.9609 10.2107 20.4696 10 21 10H21.25C21.4489 10 21.6397 9.92098 21.7803 9.78033C21.921 9.63968 22 9.44891 22 9.25V8.5C22 7.102 22 6.403 21.772 5.852C21.6212 5.48791 21.4002 5.15709 21.1216 4.87844C20.8429 4.59979 20.5121 4.37877 20.148 4.228C19.597 4 18.898 4 17.5 4H6.5C5.102 4 4.403 4 3.852 4.228C3.48791 4.37877 3.15709 4.59979 2.87844 4.87844C2.59979 5.15709 2.37877 5.48791 2.228 5.852ZM11.557 10.688C11.461 10.936 11.413 11.06 11.324 11.144C11.2992 11.1677 11.2721 11.1888 11.243 11.207C11.139 11.271 11.01 11.283 10.752 11.307C10.315 11.347 10.097 11.368 10.03 11.497C10.0164 11.5241 10.0069 11.5531 10.002 11.583C9.98 11.728 10.14 11.88 10.462 12.183L10.551 12.267C10.701 12.409 10.776 12.48 10.82 12.568C10.8453 12.6218 10.8625 12.6791 10.871 12.738C10.885 12.836 10.863 12.938 10.819 13.144L10.803 13.218C10.724 13.587 10.685 13.771 10.734 13.862C10.755 13.9017 10.786 13.9353 10.8238 13.9595C10.8617 13.9837 10.9051 13.9976 10.95 14C11.05 14.005 11.191 13.886 11.474 13.647C11.659 13.489 11.752 13.411 11.856 13.38C11.9499 13.3518 12.0501 13.3518 12.144 13.38C12.248 13.41 12.341 13.49 12.527 13.647C12.809 13.886 12.95 14.005 13.05 14C13.0949 13.9976 13.1383 13.9837 13.1762 13.9595C13.214 13.9353 13.245 13.9017 13.266 13.862C13.315 13.772 13.276 13.587 13.196 13.218L13.181 13.144C13.137 12.939 13.115 12.836 13.129 12.738C13.1375 12.6791 13.1547 12.6218 13.18 12.568C13.224 12.48 13.299 12.408 13.449 12.268L13.539 12.183C13.859 11.88 14.02 11.728 13.998 11.583C13.9931 11.5531 13.9836 11.5241 13.97 11.497C13.903 11.368 13.685 11.347 13.248 11.307C12.99 11.283 12.861 11.271 12.758 11.207C12.7286 11.1889 12.7011 11.1678 12.676 11.144C12.586 11.06 12.539 10.936 12.443 10.688C12.275 10.254 12.191 10.036 12.055 10.006C12.0186 9.99922 11.9814 9.99922 11.945 10.006C11.809 10.036 11.725 10.254 11.557 10.688Z" fill="#A03879"/>
</svg>
